<svg width="512" height="512" viewBox="0 0 512 512" fill="none" xmlns="http://www.w3.org/2000/svg">
<path d="M158.142 323.563C136.698 306.021 111.16 294.354 84.196 289.464C86.9981 303.935 91.5833 317.77 97.7135 330.732C113.021 336.207 127.282 344.638 139.563 355.71C139.792 355.249 140.022 354.788 140.254 354.329C145.606 343.688 151.585 333.417 158.142 323.563Z" fill="#1BBA66"/>
<path d="M266.366 225.809C224.708 186.444 173.092 159.912 117.98 148.398C109.982 158.642 103.1 169.8 97.5155 181.689C97.5116 181.697 97.5076 181.705 97.5036 181.714C97.5009 181.72 97.4981 181.726 97.4953 181.732C147.715 189.687 195.24 211.686 233.963 245.664C244.294 238.378 255.115 231.74 266.366 225.809Z" fill="#1BBA66"/>
<path fill-rule="evenodd" clip-rule="evenodd" d="M428.807 228.218C441.107 229.409 453.156 231.458 464.893 234.305C463.576 221.478 461.105 208.993 457.586 196.956C445.015 194.622 432.163 193.087 419.086 192.405C423.537 203.81 426.826 215.796 428.807 228.218ZM158.334 401.233C148.021 394.284 138.488 386.265 129.895 377.337C125.129 389.271 121.121 401.59 117.931 414.235C127.494 422.586 137.82 430.083 148.791 436.61C151.15 424.495 154.352 412.682 158.334 401.233ZM138.909 357.036C139.126 356.593 139.344 356.151 139.563 355.71C139.792 355.249 140.022 354.788 140.254 354.329C139.801 355.228 139.353 356.131 138.909 357.036ZM179.878 294.859C179.977 294.743 180.077 294.627 180.176 294.511C187.985 285.437 196.337 276.843 205.182 268.782C205.186 268.778 205.191 268.774 205.195 268.77C205.197 268.768 205.199 268.766 205.201 268.764" fill="#FA5805"/>
<path d="M164.136 386.1C169.529 373.259 175.924 360.944 183.224 349.252C189.738 338.82 196.973 328.883 204.859 319.512C212.731 310.157 221.252 301.367 230.352 293.209C239.386 285.111 248.991 277.637 259.099 270.855C269.354 263.975 280.126 257.807 291.346 252.421C325.291 236.127 363.33 227 403.5 227C412.038 227 420.48 227.412 428.807 228.218C426.826 215.796 423.537 203.81 419.086 192.405C413.925 192.136 408.728 192 403.5 192C353.984 192 307.322 204.22 266.366 225.809C255.115 231.74 244.294 238.378 233.963 245.664C223.892 252.767 214.286 260.485 205.201 268.764L205.195 268.77L205.182 268.782C196.337 276.843 187.985 285.437 180.176 294.511C180.077 294.627 179.977 294.743 179.878 294.859L179.715 295.048C171.969 304.094 164.761 313.616 158.142 323.563C151.585 333.417 145.606 343.688 140.254 354.329C140.022 354.788 139.792 355.249 139.563 355.71C139.344 356.151 139.126 356.593 138.909 357.036C135.659 363.666 132.65 370.437 129.895 377.337C138.488 386.265 148.021 394.284 158.334 401.233C160.114 396.114 162.05 391.067 164.136 386.1Z" fill="#1BBA66"/>
<path fill-rule="evenodd" clip-rule="evenodd" d="M188.906 417.601C188.903 417.612 188.899 417.623 188.896 417.634C185.292 428.766 182.532 440.277 180.692 452.093C191.598 456.284 202.944 459.592 214.64 461.928C216.189 450.173 218.814 438.756 222.411 427.78C216.679 426.665 211.047 425.271 205.53 423.612C199.854 421.906 194.301 419.919 188.885 417.668L188.896 417.634L188.906 417.601ZM429.043 263.491C429.64 263.56 430.237 263.631 430.833 263.705C430.318 275.603 428.615 287.192 425.839 298.359C437.617 299.77 449.064 302.258 460.079 305.723C462.825 294.409 464.656 282.738 465.487 270.79C453.708 267.392 441.531 264.93 429.043 263.491Z" fill="#FA5805"/>
<path fill-rule="evenodd" clip-rule="evenodd" d="M413.993 331.348C426.249 332.165 438.116 334.402 449.432 337.895C444.738 348.967 439.122 359.553 432.679 369.557C423.336 367.233 413.562 366 403.5 366C399.5 366 395.546 366.195 391.646 366.576C400.423 355.822 407.946 344.005 413.993 331.348ZM258.202 430.986C253.965 442.07 250.959 453.763 249.353 465.897C251.56 465.965 253.776 466 256 466C265.873 466 275.587 465.319 285.097 464.001C287.702 450.206 292.658 437.243 299.533 425.542C286.296 428.931 272.454 430.811 258.202 430.986Z" fill="#FA5805"/>
<path d="M281.776 389.725C275.689 397.371 270.307 405.604 265.729 414.325C262.907 419.701 260.39 425.263 258.202 430.986C272.454 430.811 286.296 428.931 299.533 425.542C318.578 393.131 352.345 370.413 391.646 366.576C400.423 355.822 407.946 344.005 413.993 331.348C410.525 331.117 407.026 331 403.5 331C382.262 331 362.019 335.258 343.577 342.966C332.067 347.777 321.259 353.932 311.348 361.234C300.28 369.391 290.332 378.978 281.776 389.725Z" fill="#1BBA66"/>
<path fill-rule="evenodd" clip-rule="evenodd" d="M314.861 279.919C314.875 279.913 314.89 279.907 314.904 279.901C317.559 278.77 320.24 277.689 322.945 276.658C320.225 277.694 317.53 278.781 314.861 279.919Z" fill="#1BBA66"/>
<path d="M188.885 417.668C194.301 419.919 199.854 421.906 205.53 423.612C211.047 425.271 216.679 426.665 222.411 427.78L222.468 427.607C227.39 412.636 234.123 398.486 242.407 385.417C249.943 373.528 258.764 362.532 268.673 352.626C269.427 351.872 270.188 351.125 270.954 350.384C279.207 342.406 288.18 335.169 297.767 328.78C307.858 322.055 318.628 316.27 329.954 311.549C331.869 310.751 333.801 309.983 335.747 309.246C356.654 301.332 379.321 297 403 297C410.729 297 418.351 297.462 425.839 298.359C428.615 287.192 430.318 275.603 430.833 263.705C430.237 263.631 429.64 263.56 429.043 263.491C420.498 262.506 411.808 262 403 262C374.803 262 347.817 267.187 322.945 276.658C320.24 277.689 317.559 278.77 314.904 279.901L314.861 279.919C314.044 280.267 313.23 280.62 312.418 280.977C301.169 285.93 290.402 291.778 280.208 298.43C269.973 305.108 260.315 312.597 251.326 320.806C241.994 329.327 233.383 338.623 225.594 348.592C217.22 359.311 209.796 370.808 203.449 382.957C197.68 393.998 192.801 405.578 188.906 417.601L188.896 417.634L188.885 417.668Z" fill="#148C4D"/>
<path d="M85.4812 216.479C82.807 228.063 81.283 240.088 81.0358 252.426C117.005 257.285 151.274 271.961 179.708 295.056L179.715 295.048L179.878 294.859C179.977 294.743 180.077 294.627 180.176 294.511C187.985 285.437 196.337 276.843 205.182 268.782L205.195 268.77L205.201 268.764C170.963 240.171 129.309 222.054 85.5442 216.206L85.5431 216.211L85.5426 216.213C85.5221 216.302 85.5016 216.39 85.4812 216.479Z" fill="#148C4D"/>
<path fill-rule="evenodd" clip-rule="evenodd" d="M258.202 430.986C257.469 430.995 256.735 431 256 431C244.511 431 233.281 429.893 222.411 427.78C199.06 423.24 177.368 414.058 158.334 401.233C148.021 394.284 138.488 386.265 129.895 377.337C125.129 389.271 121.121 401.59 117.931 414.235C154.845 446.471 203.142 466 256 466C371.98 466 466 371.98 466 256C466 235.5 463.063 215.686 457.586 196.956C445.015 194.622 432.163 193.087 419.086 192.405C423.537 203.81 426.826 215.796 428.807 228.218C430.25 237.266 431 246.546 431 256C431 258.582 430.944 261.15 430.833 263.705C430.318 275.603 428.615 287.192 425.839 298.359C422.983 309.846 418.993 320.884 413.993 331.348C407.946 344.005 400.423 355.822 391.646 366.576C368.371 395.094 336.282 416.134 299.533 425.542C286.296 428.931 272.454 430.811 258.202 430.986ZM85.5431 216.211C85.8042 215.088 86.0761 213.97 86.3587 212.855C86.0765 213.968 85.805 215.085 85.5442 216.206L85.5431 216.211ZM97.4953 181.732C97.4981 181.726 97.5009 181.72 97.5036 181.714C97.5076 181.705 97.5116 181.697 97.5155 181.689C103.1 169.8 109.982 158.642 117.98 148.398" fill="#148C4D"/>
<path d="M457.586 196.956C432.077 109.72 351.48 46 256 46C181.587 46 116.214 84.7037 78.9131 143.079C71.8064 154.2 65.7186 166.036 60.7815 178.455C55.9765 190.541 52.2614 203.179 49.7575 216.247C47.6052 227.48 46.3478 239.031 46.0625 250.824C46.0209 252.544 46 254.27 46 256C46 266.873 46.8263 277.553 48.4197 287.981C50.2795 300.153 53.1844 311.981 57.0399 323.371C69.0562 358.87 90.3064 390.111 117.931 414.235C121.121 401.59 125.129 389.271 129.895 377.337C116.798 363.729 105.884 348.006 97.7135 330.732C91.5833 317.77 86.9981 303.935 84.196 289.464C82.0986 278.632 81 267.444 81 256C81 254.806 81.012 253.614 81.0358 252.426C81.283 240.088 82.807 228.063 85.4812 216.479L85.5426 216.213L85.5431 216.211L85.5442 216.206C85.805 215.085 86.0765 213.968 86.3587 212.855C89.0999 202.044 92.8472 191.634 97.4953 181.732L97.5036 181.714L97.5155 181.689C103.1 169.8 109.982 158.642 117.98 148.398C150.007 107.376 199.923 81 256 81C330.215 81 393.64 127.198 419.086 192.405C432.163 193.087 445.015 194.622 457.586 196.956Z" fill="#148C4D"/>
<path d="M203.736 168.785C215.946 132.296 250.402 106 291 106C336.621 106 374.485 139.205 381.745 182.766C341.129 185.634 302.699 196.471 268.023 213.726C248.398 196.001 226.769 180.954 203.736 168.785Z" fill="#FA5805"/>
</svg>
